<?xml version="1.0" encoding="utf-8"?><svg version="1.1" xmlns="http://www.w3.org/2000/svg" xmlns:xlink="http://www.w3.org/1999/xlink" x="0px" y="0px" viewBox="0 0 122.88 122.88" style="enable-background:new 0 0 122.88 122.88" xml:space="preserve"><style type="text/css"><![CDATA[.st0{fill-rule:evenodd;clip-rule:evenodd;}]]></style><g><path class="st0" d="M25.68,15.44h71.52c2.12,0,4.03,0.87,5.42,2.26c1.39,1.39,2.26,3.31,2.26,5.42v76.08 c0,2.12-0.87,4.03-2.26,5.42c-1.39,1.39-3.31,2.26-5.42,2.26H25.68c-2.12,0-4.03-0.87-5.42-2.26c-1.39-1.39-2.26-3.31-2.26-5.42 V23.12c0-2.12,0.87-4.03,2.26-5.42C21.65,16.31,23.56,15.44,25.68,15.44L25.68,15.44z M61.44,0c1.66,0,3,1.34,3,3v9.44h-6V3 C58.44,1.34,59.78,0,61.44,0L61.44,0z M43.35,50.78l11.45,11.45l24.93-24.93c1.17-1.17,3.07-1.17,4.24,0 c1.17,1.17,1.17,3.07,0,4.24L57.92,67.59c-1.17,1.17-3.07,1.17-4.24,0L41.23,55.14c-1.17-1.17-1.17-3.07,0-4.24 C42.4,49.73,44.3,49.73,43.35,50.78L43.35,50.78z M74.44,12.44V3c0-1.66,1.34-3,3-3c1.66,0,3,1.34,3,3v9.44H74.44L74.44,12.44z M97.2,21.44H25.68c-0.45,0-0.87,0.19-1.17,0.49c-0.3,0.3-0.49,0.72-0.49,1.17v76.08c0,0.45,0.19,0.87,0.49,1.17 c0.3,0.3,0.72,0.49,1.17,0.49h71.52c0.45,0,0.87-0.19,1.17-0.49c0.3-0.3,0.49-0.72,0.49-1.17V23.12c0-0.45-0.19-0.87-0.49-1.17 C98.07,21.63,97.65,21.44,97.2,21.44L97.2,21.44z"/></g></svg>
